<?xml version="1.0" standalone="no"?>
<!DOCTYPE svg PUBLIC "-//W3C//DTD SVG 20010904//EN"
 "http://www.w3.org/TR/2001/REC-SVG-20010904/DTD/svg10.dtd">
<svg version="1.0" xmlns="http://www.w3.org/2000/svg"
 width="40.000000pt" height="100.000000pt" viewBox="0 0 169.000000 104.000000"
 preserveAspectRatio="xMidYMid meet">

<g transform="translate(0.000000,104.000000) scale(0.100000,-0.100000)"
fill="#808080" stroke="none">
<path d="M761 1014 c-27 -22 -29 -23 -77 -8 -78 24 -197 15 -270 -22 -33 -16
-59 -36 -59 -44 0 -8 20 -22 45 -31 25 -9 45 -23 45 -30 0 -7 -21 -18 -47 -25
-59 -15 -183 -72 -175 -81 4 -3 18 2 31 11 32 21 158 68 164 61 6 -5 -61 -35
-79 -35 -7 0 -9 -3 -6 -6 4 -4 -48 -39 -116 -78 -67 -39 -122 -76 -122 -82 0
-5 -15 -29 -33 -52 -19 -23 -31 -42 -29 -42 10 0 122 114 120 122 -2 4 4 5 13
1 16 -6 14 -10 -44 -75 -13 -14 -21 -31 -18 -36 3 -5 -5 -30 -19 -54 -24 -43
-65 -151 -65 -170 0 -23 18 6 25 38 10 55 19 32 25 -64 3 -59 9 -86 17 -85 6
1 14 -11 18 -27 6 -28 25 -43 25 -20 0 22 17 7 50 -45 19 -30 38 -55 42 -55 5
0 0 12 -9 27 l-18 28 31 -22 c17 -12 37 -29 44 -38 7 -9 21 -13 31 -10 9 3 33
-1 52 -9 20 -8 38 -12 40 -9 3 3 15 2 27 -2 26 -8 22 -13 -27 -30 -37 -14 -35
-14 58 -15 92 0 97 1 113 25 21 31 31 31 72 0 18 -14 41 -25 51 -25 12 0 8 6
-16 21 -18 11 -31 22 -29 25 3 2 29 0 58 -6 29 -5 85 -10 126 -10 81 0 114 -8
92 -21 -24 -16 21 -10 53 7 28 14 33 14 55 -1 19 -12 52 -15 171 -14 164 1
173 4 223 72 39 54 39 39 0 -19 -17 -24 -27 -44 -22 -44 16 0 71 94 89 151 9
30 20 83 24 119 7 60 8 58 4 -25 -2 -55 0 -82 5 -70 5 11 9 53 9 93 1 51 4 71
12 66 7 -4 9 -22 6 -45 -3 -22 -1 -42 4 -45 15 -9 10 117 -6 170 -18 58 -19
69 -5 61 16 -10 12 7 -17 60 -18 34 -21 46 -9 36 9 -8 19 -12 22 -9 2 3 -37
44 -87 92 -98 92 -109 118 -15 36 33 -29 66 -50 79 -49 21 1 21 1 -4 12 -14 7
-45 28 -70 48 -24 20 -68 49 -97 63 -30 15 -52 30 -49 32 3 3 32 -8 66 -25 62
-32 87 -39 76 -21 -3 5 -44 24 -90 41 -47 18 -85 36 -85 40 0 4 27 24 60 44
33 20 60 41 60 46 0 5 -28 23 -62 40 -54 27 -76 32 -163 37 -57 2 -123 0 -152
-6 -42 -9 -58 -9 -80 2 -15 8 -52 19 -82 24 -48 8 -56 7 -80 -14z m229 -284
c32 -12 49 -26 59 -49 16 -33 31 -41 31 -16 0 13 4 14 20 5 27 -14 25 -40 -5
-100 -43 -84 -31 -127 51 -189 115 -87 94 -241 -42 -311 -47 -24 -56 -25 -204
-23 -145 2 -270 18 -332 42 -39 15 -109 81 -125 118 -19 47 -16 113 7 150 10
18 41 49 69 70 72 56 79 71 59 146 -9 34 -18 68 -20 76 -3 15 42 46 83 56 25
6 26 4 21 -21 -3 -19 -1 -25 7 -20 6 4 11 13 11 20 0 33 28 48 111 61 92 14
130 11 199 -15z m-850 -64 c0 -2 -8 -10 -17 -17 -16 -13 -17 -12 -4 4 13 16
21 21 21 13z m-53 -408 c-3 -8 -6 -5 -6 6 -1 11 2 17 5 13 3 -3 4 -12 1 -19z"/>
<path d="M766 593 c-9 -10 -7 -93 3 -93 12 0 21 26 21 60 0 29 -12 45 -24 33z"/>
<path d="M912 573 c-23 -43 -8 -90 18 -58 9 11 10 24 3 48 -9 31 -9 31 -21 10z"/>
<path d="M787 492 c-10 -10 -17 -33 -17 -51 0 -27 5 -34 35 -47 31 -12 39 -12
70 0 27 12 35 21 35 41 0 59 -86 98 -123 57z m81 -18 c50 -35 -2 -93 -57 -62
-33 18 -36 33 -12 57 25 25 39 26 69 5z"/>
<path d="M540 338 c0 -35 8 -42 117 -102 86 -47 114 -58 168 -63 62 -6 69 -4
148 37 94 48 131 79 125 106 -3 16 -6 14 -18 -10 -18 -36 -56 -49 -125 -41
-27 2 -108 6 -178 6 -109 2 -135 5 -170 23 -28 14 -43 29 -45 44 -2 12 -8 22
-13 22 -5 0 -9 -10 -9 -22z"/>
<path d="M290 790 c-8 -5 -10 -10 -5 -10 6 0 17 5 25 10 8 5 11 10 5 10 -5 0
-17 -5 -25 -10z"/>
<path d="M50 500 c-22 -33 -36 -60 -31 -60 6 0 20 17 31 38 11 20 27 47 36 60
9 12 14 22 11 22 -4 0 -25 -27 -47 -60z"/>
<path d="M50 358 c0 -7 -3 -31 -7 -52 -4 -26 -3 -37 4 -33 10 6 17 97 8 97 -3
0 -5 -6 -5 -12z"/>
</g>
</svg>
